<svg xmlns="http://www.w3.org/2000/svg" width="800" height="800" viewBox="0 0 800 800" role="img" aria-label="Vedro? Ventilátory Concept"><defs><linearGradient id="g" x1="0" y1="0" x2="1" y2="1"><stop offset="0" stop-color="#082f49"/><stop offset="1" stop-color="#0284c7"/></linearGradient><radialGradient id="r"><stop offset="0" stop-color="#a5f3fc" stop-opacity=".24"/><stop offset="1" stop-color="#a5f3fc" stop-opacity="0"/></radialGradient></defs><rect width="800" height="800" rx="28" fill="url(#g)"/><circle cx="400.0" cy="560.0" r="463.99999999999994" fill="url(#r)"/><rect x="64.0" y="42" width="672.0" height="42" rx="21" fill="#a5f3fc" fill-opacity=".18" stroke="#a5f3fc" stroke-opacity=".55"/><text x="400.0" y="70" text-anchor="middle" fill="#fff" font-size="17" font-weight="850" letter-spacing="1.1">VEDRO A OCHLAZENÍ</text><text x="400.0" y="190.0" text-anchor="middle" fill="#fff" font-size="47" font-weight="900">VEDRO?</text><text x="400.0" y="240.76" text-anchor="middle" fill="#fff" font-size="47" font-weight="900">VENTILÁTORY CONCEPT</text><text x="400.0" y="319.52" text-anchor="middle" fill="#e2e8f0" font-size="22" font-weight="600">Stolní, stojanové i sloupové modely</text><text x="400.0" y="349.21999999999997" text-anchor="middle" fill="#e2e8f0" font-size="22" font-weight="600">Ověřený affiliate odkaz</text><g transform="translate(295.0 440.00000000000006)" fill="none" stroke="#a5f3fc" stroke-width="10" stroke-linecap="round"><circle cx="105.0" cy="105.0" r="88.2"/><circle cx="105.0" cy="105.0" r="16.8"/><path d="M105.0 88.2c-52.5-63.0-94.5-25.2-67.2 18.9"/><path d="M121.8 105.0c77.7-8.4 71.4-60.9 21.0-60.9"/><path d="M94.5 119.69999999999999c-25.2 73.5 31.5 90.3 60.9 42.0"/></g><rect x="128.0" y="700" width="544.0" height="52" rx="26.0" fill="#a5f3fc"/><text x="400.0" y="734.84" text-anchor="middle" fill="#082f49" font-size="17" font-weight="900">ZJISTIT VÍCE</text></svg>